# xmcd CD database file
#
# Track frame offsets:
#	150
#	19810
#	32357
#	47215
#	62865
#	78187
#	96290
#	117992
#	134275
#	154602
#	171455
#	191292
#
# Disc length: 2758 seconds
#
# Revision: 0
# Processed by: cddbd v1.5.1PL0 Copyright (c) Steve Scherf et al.
# Submitted via: CDex 1.51
#
DISCID=970ac40c
DTITLE=JEWELRY - SUPER STAR
DYEAR=2005
DGENRE=INTERNATIONAL(POPS)
TTITLE0=Superstar
TTITLE1=Passion
TTITLE2=真実ゲーム
TTITLE3=Twenty
TTITLE4=KIN
TTITLE5=あなたを見送りながら
TTITLE6=Liar
TTITLE7=dear TIME(I'll be there)
TTITLE8=DANJANG〜幸せになりたくて
TTITLE9=Sunny Day
TTITLE10=Superstar(Instrumental)
TTITLE11=Twenty(Instrumental)
EXTD=YEAR: 2005
EXTT0=
EXTT1=
EXTT2=
EXTT3=
EXTT4=
EXTT5=
EXTT6=
EXTT7=
EXTT8=
EXTT9=
EXTT10=
EXTT11=
PLAYORDER=
